<?xml version="1.0" standalone="no"?>
<!DOCTYPE svg PUBLIC "-//W3C//DTD SVG 20010904//EN"
 "http://www.w3.org/TR/2001/REC-SVG-20010904/DTD/svg10.dtd">
<svg version="1.0" xmlns="http://www.w3.org/2000/svg"
 width="200.000000pt" height="200.000000pt" viewBox="0 0 200.000000 200.000000"
 preserveAspectRatio="xMidYMid meet">
<metadata> 
Created by potrace 1.16, written by Peter Selinger 2001-2019
</metadata>
<g transform="translate(0.000000,200.000000) scale(0.100000,-0.100000)"
fill="#000000" stroke="none" >
<path d="M850 1555 c-8 -2 -49 -9 -90 -15 -211 -34 -406 -151 -509 -305 -70
-106 -86 -158 -85 -285 0 -84 5 -116 22 -161 49 -123 160 -247 285 -317 23
-12 31 -15 17 -5 -110 78 -207 204 -240 311 -56 181 -2 360 154 510 93 89 193
146 331 188 83 26 103 28 265 28 153 1 185 -2 253 -22 87 -25 193 -70 237
-102 17 -12 30 -19 30 -16 0 10 -88 65 -160 101 -104 53 -241 85 -380 90 -63
2 -122 2 -130 0z"/>
<path d="M1510 1533 c110 -78 207 -204 240 -311 56 -181 2 -360 -154 -510
-148 -142 -323 -211 -556 -219 -202 -8 -381 33 -513 117 -59 37 -62 31 -3 -9
386 -266 991 -185 1225 164 70 106 86 158 85 285 0 84 -5 116 -22 161 -49 123
-160 247 -285 317 -23 12 -31 15 -17 5z"/>
<path d="M685 1141 c-47 -25 -45 -25 -45 -6 0 9 -9 15 -25 15 l-25 0 0 -215 0
-215 25 0 c24 0 25 2 25 75 0 41 2 75 5 75 2 0 19 -9 37 -20 46 -28 128 -27
179 2 102 57 105 208 6 282 -40 30 -131 33 -182 7z m150 -55 c28 -19 50 -83
41 -120 -26 -103 -182 -117 -222 -19 -25 58 3 129 61 154 27 12 91 4 120 -15z"/>
<path d="M1038 1145 c-39 -22 -57 -85 -34 -120 20 -31 43 -41 133 -56 74 -13
93 -22 93 -49 0 -29 -27 -43 -87 -44 -51 0 -58 2 -83 32 -18 21 -35 32 -53 32
-68 0 4 -102 81 -115 105 -17 202 25 204 90 2 72 -18 88 -133 107 -78 12 -114
33 -104 60 16 42 136 40 164 -1 7 -12 24 -21 37 -21 33 0 32 39 -2 71 -22 21
-37 24 -107 27 -59 1 -90 -2 -109 -13z"/>
<path d="M1360 989 l0 -160 28 3 27 3 3 158 3 157 -31 0 -30 0 0 -161z"/>
</g>
</svg>
