<?xml version="1.0" encoding="utf-8"?>
<!-- Generator: Adobe Illustrator 24.3.0, SVG Export Plug-In . SVG Version: 6.00 Build 0)  -->
<svg version="1.1" id="PSI_Logo_RGB" xmlns="http://www.w3.org/2000/svg" xmlns:xlink="http://www.w3.org/1999/xlink" x="0px"
	 y="0px" viewBox="0 0 577.7 384.1" style="enable-background:new 0 0 577.7 384.1;" xml:space="preserve">
<style type="text/css">
	.st0{fill:#FFFFFF;}
</style>
<path class="st0" d="M0,207.7c0,74.5,51,139.8,127.7,176.4C64.1,346.5,23.1,287.5,23.1,221c0-113.5,119.6-205.6,267.1-205.6
	c70,0,133.7,20.8,181.3,54.7c-49.4-42.9-121.5-70-201.8-70C120.7,0.1,0,93,0,207.7z"/>
<path class="st0" d="M450.1,0c63.6,37.6,104.6,96.7,104.6,163.1c0,113.6-119.6,205.6-267.1,205.6c-70,0-133.7-20.7-181.3-54.7
	c49.4,42.9,121.5,70,201.8,70c148.9,0,269.6-92.9,269.6-207.6C577.7,101.9,526.7,36.6,450.1,0L450.1,0z"/>
<path class="st0" d="M236.2,223.3c-7.2,6.9-17,10.4-29.5,10.4c-12.4,0-22.2-3.5-29.5-10.4s-10.9-16.6-10.9-29c0-12.3,3.6-22,10.9-29
	s17.1-10.5,29.5-10.5c12.4,0,22.2,3.5,29.5,10.4c7.2,7,10.9,16.6,10.8,29C247,206.7,243.4,216.3,236.2,223.3L236.2,223.3z
	 M208.9,136.6c-17.8,0-32,6.4-42.5,19.1v-16.4h-19.8v148.9h19.8v-55.4c11.1,12.7,25.2,19,42.3,19c17.5,0,31.7-5.3,42.7-15.8
	c11-10.5,16.5-24.5,16.5-41.8c0-17.3-5.5-31.3-16.4-41.8C240.4,141.9,226.2,136.6,208.9,136.6L208.9,136.6z"/>
<path class="st0" d="M380.2,194.8c-5.1-3.7-13.3-6.5-24.8-8.3l-23.9-3.9c-8-1.3-13.4-2.5-15.9-3.5c-5.9-2.5-8.9-6.4-8.9-11.8
	c0-9.9,9.5-14.8,28.4-14.8c19.9,0,30.5,6.6,31.8,19.9h19.4v-0.8c0-13.1-5.3-22.7-16-28.8c-8.5-4.8-19.8-7.2-34.1-7.2
	c-33,0-49.4,11.7-49.4,35.2c0,10.3,4,17.8,12.1,22.6c5,2.9,13.8,5.4,26.5,7.6l24.6,4.2c6.3,1.1,10.6,2.3,13,3.3
	c4.6,2.2,6.9,5.6,6.9,10.2c0,11.1-11.4,16.7-34.2,16.7c-19.5,0-30.2-7.3-32.1-22h-21.9c2.5,26.4,20.5,39.7,54,39.6
	c14.8,0,26.9-2.2,36.2-6.7c12.4-6,18.6-15.6,18.6-28.8C390.4,207.3,387,199.7,380.2,194.8L380.2,194.8z"/>
<polygon class="st0" points="412.6,249.1 432.4,249.1 432.4,139.3 412.6,139.3 412.6,249.1 "/>
<polygon class="st0" points="412.6,125 432.4,125 432.4,100.8 412.6,100.8 412.6,125 "/>
</svg>
